{"accessors" : [{"bufferView" : 0, "byteOffset" : 0, "componentType" : 5125, "count" : 436302, "type" : "SCALAR", "max" : [436301], "min" : [0]}, {"bufferView" : 1, "byteOffset" : 0, "componentType" : 5126, "count" : 436302, "type" : "VEC3", "max" : [88.2249984741211, 115, 179.281005859375], "min" : [-53, -70.91600036621094, -2]}], "asset" : {"generator" : "Aspose.3D 20.11", "version" : "2.0"}, "buffers" : [{"uri" : "buffer.bin", "byteLength" : 6980840}], "bufferViews" : [{"buffer" : 0, "byteOffset" : 0, "byteLength" : 1745208, "target" : 34963}, {"buffer" : 0, "byteOffset" : 1745212, "byteLength" : 5235624, "byteStride" : 12, "target" : 34962}], "meshes" : [{"primitives" : [{"attributes" : {"POSITION" : 1}, "indices" : 0, "mode" : 4}]}], "nodes" : [{"mesh" : 0, "name" : "group_0_10988977"}], "scene" : 0, "scenes" : [{"nodes" : [0]}]}